<svg width="24" height="24" viewBox="0 0 24 24" fill="none" xmlns="http://www.w3.org/2000/svg">
<g id="icon">
<g id="Vector">
<path d="M9.78926 19C7.40798 18.9862 5.43823 14.1252 5.43823 11.6497C5.43823 7.60578 8.47183 6.72047 9.64095 6.72047C10.1678 6.72047 10.7304 6.92738 11.2266 7.11047C11.5736 7.23819 11.9325 7.37003 12.1321 7.37003C12.2516 7.37003 12.5331 7.25788 12.7817 7.15947C13.3118 6.94844 13.9714 6.68616 14.7395 6.68616H14.7441C15.3176 6.68616 17.0567 6.81203 18.1022 8.38216L18.3471 8.75019L17.9947 9.01616C17.4911 9.39609 16.5724 10.0892 16.5724 11.462C16.5724 13.088 17.6129 13.7133 18.1128 14.014C18.3334 14.1468 18.5618 14.2837 18.5618 14.583C18.5618 14.7785 17.0018 18.9757 14.7363 18.9757C14.182 18.9757 13.7901 18.8091 13.4445 18.6622C13.0948 18.5134 12.7931 18.3852 12.2946 18.3852C12.0419 18.3852 11.7224 18.5047 11.3841 18.6315C10.9218 18.804 10.3985 19 9.80483 19H9.78926Z" fill="black" fill-opacity="0.87"/>
<path d="M14.9795 3C15.0385 5.12737 13.5171 6.60325 11.9975 6.51069C11.7471 4.81297 13.5169 3 14.9795 3Z" fill="black" fill-opacity="0.87"/>
</g>
</g>
</svg>
